<?xml version="1.0" encoding="utf-8"?>
<!-- Generator: Adobe Illustrator 23.0.3, SVG Export Plug-In . SVG Version: 6.00 Build 0)  -->
<svg version="1.1" xmlns="http://www.w3.org/2000/svg" xmlns:xlink="http://www.w3.org/1999/xlink" x="0px" y="0px"
	 viewBox="0 0 348 250" style="enable-background:new 0 0 348 250;" xml:space="preserve">
<style type="text/css">
	.st0{fill:#2CA2C6;}
	.st1{fill:none;stroke:#0274AD;stroke-width:3;}
	.st2{fill:#FFFFFF;stroke:#231F20;stroke-width:2;}
	.st3{fill:#F6921E;}
	.st4{fill:#231F20;}
	.st5{fill:#FFFFFF;}
	.st6{fill:#BB7B2A;stroke:#231F20;stroke-width:2;}
	.st7{fill:none;stroke:#231F20;stroke-width:2;}
	.st8{fill:#634118;stroke:#231F20;stroke-width:2;}
	.st9{fill:#BB7B2A;}
	.st10{fill:url(#SVGID_1_);}
	.st11{fill:#231F20;stroke:#231F20;stroke-width:2;}
	.st12{fill:#63462C;}
	.st13{fill:none;stroke:#020202;stroke-width:4;}
	.st14{fill:none;stroke:#F9CB11;stroke-width:3;}
	.st15{fill:none;stroke:#F37A20;stroke-width:3;}
	.st16{font-family:'MyriadPro-Regular';}
	.st17{font-size:28px;}
	.st18{font-size:18px;}
	.st19{fill:none;}
	.st20{font-size:8px;}
</style>
<g id="Layer_2">
	<rect x="-1" y="17" class="st0" width="350" height="216"/>
</g>
<g id="Layer_1">
	<path d="M55.29,201.19H25.27c-0.71,0-1.29-0.58-1.29-1.29v-2.57c0-0.71,0.58-1.29,1.29-1.29h30.02c0.71,0,1.29,0.58,1.29,1.29v2.57
		C56.57,200.61,56,201.19,55.29,201.19z"/>
	<ellipse class="st1" cx="157.76" cy="52.74" rx="4.19" ry="4.31"/>
	<path d="M81.42,113.33H14c-0.6,0-1.09-0.49-1.09-1.09v-2.19c0-0.6,0.49-1.09,1.09-1.09h67.42c0.6,0,1.09,0.49,1.09,1.09v2.19
		C82.52,112.84,82.03,113.33,81.42,113.33z"/>
	<ellipse class="st2" cx="52.24" cy="132.03" rx="25.99" ry="26.73"/>
	<ellipse class="st3" cx="44.99" cy="134.44" rx="17.62" ry="18.12"/>
	<ellipse class="st4" cx="41.19" cy="134.35" rx="9.06" ry="9.32"/>
	<ellipse class="st5" cx="47.48" cy="123.43" rx="8.36" ry="8.6"/>
	<ellipse class="st6" cx="111.01" cy="148.79" rx="63.31" ry="65.11"/>
	<ellipse class="st2" cx="114.12" cy="129.74" rx="25.99" ry="26.73"/>
	<ellipse class="st3" cx="106.87" cy="132.15" rx="17.62" ry="18.12"/>
	<ellipse class="st4" cx="103.07" cy="132.06" rx="9.06" ry="9.32"/>
	<ellipse class="st5" cx="109.36" cy="121.15" rx="8.36" ry="8.6"/>
	<path class="st7" d="M36.04,104.33c5.14,0-0.98-10.21,4.16-10.21c5.66,0,22.59,10.21,28.25,10.21"/>
	<path class="st7" d="M92.21,104.33c1.11,0,22.69-27.04,39.85,0"/>
	<path class="st4" d="M68.21,177.32c0.03-0.02,0.07-0.04,0.13-0.07c0.72-0.43,14.2-8.16,25.93-6.38c9.34,1.42,8.47,7.49,14.56,7.02
		c8.64-0.67,10.66-12.88,24.54-18.73c2.02-0.85,10.53-4.44,16.67-1.98c11.77,4.71,13.24,30.94-0.54,48.4
		c-16.08,20.38-46.32,20.46-52.4,20.48c-5.62,0.02-16.37-0.08-26.89-6.11c-10.97-6.29-15.14-15.28-16.54-18.43
		c-2.61-5.86-5.43-12.21-2.61-19.3c0,0,0.67-1.68,8.53-12.95"/>
	<path class="st8" d="M70.54,138.81c-13.31-2.75-29.12,22.05-24.83,30.19c1.76,3.33,6.86,3.81,15.8,4.64
		c9.98,0.93,18.03,1.69,21.67-2.79C89.43,163.19,81.91,141.17,70.54,138.81z"/>
	<path class="st9" d="M67.36,201.16c15.23,6.45,31.49,4.78,41.84-4.76c5.65-5.2,8.24-11.55,9.47-15.84"/>
	<path class="st2" d="M71.67,198.78c13.41,4.75,27.04,2.84,35.05-5.53c1.87-1.96,4.48-5.36,6.09-10.79"/>
	<linearGradient id="SVGID_1_" gradientUnits="userSpaceOnUse" x1="135.5149" y1="123.1756" x2="147.3096" y2="108.659">
		<stop  offset="0.5405" style="stop-color:#BB7B2A"/>
		<stop  offset="0.5933" style="stop-color:#B57729"/>
		<stop  offset="0.6627" style="stop-color:#A56C25"/>
		<stop  offset="0.7415" style="stop-color:#895A1F"/>
		<stop  offset="0.8271" style="stop-color:#634116"/>
		<stop  offset="0.9172" style="stop-color:#33220B"/>
		<stop  offset="1" style="stop-color:#000000"/>
	</linearGradient>
	<path class="st10" d="M138.12,90.4c0.9,23.17,13.52,39.34,13.52,39.34l15.32-15.72L138.12,90.4z"/>
	<path class="st11" d="M63.63,97.75c-12.66-6.54-13.13-38.62-4.25-43c3.18-1.57,8.21,0.09,11.2,2.55c4.06,3.33,4.49,8.23,5.47,8.08
		c2.2-0.34-2.74-24.13,4.11-27.6c3.06-1.55,8.05,1.15,10.65,4.54c5.67,7.41,1.26,19.86,2.17,20.07c1.27,0.29,4.03-25.37,14.74-28.1
		c3.72-0.95,8.02,0.97,10.18,3.69c3.52,4.43,1.72,11.35,0.68,15.32c-1.74,6.65-4.93,10.56-4.42,10.95
		c0.84,0.65,7.52-11.56,20.32-17.84c6.65-3.26,17.5-6.18,20.81-1.85c3.55,4.64-3.15,15.55-3.94,16.85
		c-5.68,9.26-14.03,13.41-13.66,14.02c0.42,0.69,10.05-6.46,23.66-9.66c4.91-1.15,18.01-4.23,21.37,1.19
		c2.55,4.1-1.41,11.57-4.22,15.33c-5.7,7.6-14.04,9.77-13.58,11.16c0.48,1.46,9.06-2.71,14.34,1.3c3.71,2.82,6.02,9.84,2.81,15.22
		c-2.55,4.27-7.54,5.73-11.28,5.35c-4.32-0.44-5.92-3.2-11.05-7.32c-2.95-2.37-2.71-1.69-24.18-12.57
		c-10.87-5.51-11.4-5.92-13.96-6.58c-2.54-0.66-10.97-2.73-20.7,0.01c-1.04,0.29-6.09,2.6-16.19,7.23
		c-4.69,2.15-7.61,3.52-11.86,3.6C69.29,99.74,65.8,98.88,63.63,97.75z"/>
	<path class="st6" d="M153.21,118.88c1.55-1.45,9.13-8.23,19.42-7.23c16.2,1.57,22.68,22.08,23.44,24.45
		c5.56,17.46-3.2,32.37-5.02,35.47c-2.3,3.92-5.44,9.1-11.78,12.11c-1.85,0.88-10.85,4.84-19.33,0c-4.06-2.32-6.32-5.7-7.4-7.61"/>
	<path class="st7" d="M158.4,136.75c3.17-6.32,9.02-10.02,14.42-9.27c6.91,0.96,9.97,8.76,11.27,12.05
		c4.01,10.22-0.32,19.64-0.9,20.86c-4.68,9.78-13.67,12.9-15.32,13.44"/>
	<path class="st7" d="M171.86,136.99c-8.97,3.95-12.86,12.39-10.76,17.92c1.6,4.23,6.37,5.91,7.69,6.33"/>
	<path class="st12" d="M188.48,166.49"/>
	<path class="st13" d="M205.29,33.22"/>
	<path class="st13" d="M127.69,32"/>
	<path class="st13" d="M84.59,81.51"/>
	<path class="st13" d="M12.71,173.65"/>
	<path d="M102.49,41.89H37.14c-3.96,0-4.91-0.98-4.91-2.19v0c0-1.21,0.95-2.19,2.13-2.19h65.35c1.17,0,2.13,0.98,2.13,2.19v0
		C101.83,40.92,100.88,41.89,102.49,41.89z"/>
	<ellipse class="st1" cx="82.45" cy="27.31" rx="4.19" ry="4.31"/>
	<path d="M202.65,35.52h-67.42c-0.6,0-1.09-0.49-1.09-1.09v-2.19c0-0.6,0.49-1.09,1.09-1.09h67.42c0.6,0,1.09,0.49,1.09,1.09v2.19
		C203.75,35.03,203.26,35.52,202.65,35.52z"/>
	<ellipse class="st1" cx="224.17" cy="73.03" rx="4.19" ry="4.31"/>
	<path d="M206.64,151.1h-67.42c-0.6,0-1.09-0.49-1.09-1.09v-2.19c0-0.6,0.49-1.09,1.09-1.09h67.42c0.6,0,1.09,0.49,1.09,1.09V150
		C207.73,150.61,207.24,151.1,206.64,151.1z"/>
	<ellipse class="st1" cx="219.98" cy="148.79" rx="4.19" ry="4.31"/>
	<path d="M175.53,220.51h-67.42c-0.6,0-1.09-0.49-1.09-1.09v-2.19c0-0.6,0.49-1.09,1.09-1.09h67.42c0.6,0,1.09,0.49,1.09,1.09v2.19
		C176.62,220.03,176.13,220.51,175.53,220.51z"/>
	<ellipse class="st14" cx="184.98" cy="218.21" rx="4.19" ry="4.31"/>
	<ellipse cx="130.4" cy="33.4" rx="2.59" ry="2.67"/>
	<ellipse cx="133.34" cy="148.83" rx="2.21" ry="2.28"/>
	<ellipse cx="12.99" cy="166.21" rx="1.11" ry="1.14"/>
	<path d="M46.42,67.98H16.4c-0.71,0-1.29-0.58-1.29-1.29v-2.57c0-0.71,0.58-1.29,1.29-1.29h30.02c0.71,0,1.29,0.58,1.29,1.29v2.57
		C47.71,67.4,47.13,67.98,46.42,67.98z"/>
	<path d="M21.61,201.19H7.89c-0.71,0-1.29-0.58-1.29-1.29v-2.57c0-0.71,0.58-1.29,1.29-1.29h13.72c0.71,0,1.29,0.58,1.29,1.29v2.57
		C22.89,200.61,22.32,201.19,21.61,201.19z"/>
	<path d="M211.39,75.61h-30.02c-0.71,0-1.29-0.58-1.29-1.29v-2.57c0-0.71,0.58-1.29,1.29-1.29h30.02c0.71,0,1.29,0.58,1.29,1.29
		v2.57C212.68,75.03,212.1,75.61,211.39,75.61z"/>
	<ellipse class="st15" cx="20.39" cy="170.8" rx="4.19" ry="4.31"/>
	<text transform="matrix(0.9722 0 0 1 187.9277 108.2783)" class="st16 st17">Corbin Graves</text>
	<text transform="matrix(0.9722 0 0 1 231.5225 135.999)" class="st16 st18">Illustrator</text>
	<path d="M314.94,121.39H179.49c-0.88,0-1.6-0.72-1.6-1.6v-3.2c0-0.88,0.72-1.6,1.6-1.6h135.45c0.88,0,1.6,0.72,1.6,1.6v3.2
		C316.54,120.68,315.83,121.39,314.94,121.39z"/>
	<path d="M267.33,69"/>
	<rect x="236.28" y="144.63" class="st19" width="96.78" height="18.87"/>
	<text transform="matrix(0.9722 0 0 1 225.1973 204.5117)" class="st16 st20">Corbingraves90@gmail.com</text>
	<text transform="matrix(0.9722 0 0 1 224.916 216.0059)" class="st16 st20">corbingravesdesign.squarespace.com</text>
	<text transform="matrix(0.9722 0 0 1 225.7822 194.9785)" class="st16 st20">336-963-1793</text>
	<ellipse cx="221.43" cy="193.41" rx="2.21" ry="2.28"/>
	<ellipse cx="221.43" cy="203.41" rx="2.21" ry="2.28"/>
	<ellipse cx="221.43" cy="213.41" rx="2.21" ry="2.28"/>
</g>
</svg>
