<?xml version="1.0" encoding="utf-8"?>
<!-- Generator: Adobe Illustrator 23.1.1, SVG Export Plug-In . SVG Version: 6.00 Build 0)  -->
<svg version="1.1" id="Layer_1" xmlns="http://www.w3.org/2000/svg" xmlns:xlink="http://www.w3.org/1999/xlink" x="0px" y="0px"
	 viewBox="0 0 461 389.1" style="enable-background:new 0 0 461 389.1;" xml:space="preserve">
<style type="text/css">
	.st0{fill:#FEFEFE;}
	.st1{fill:#E0B424;}
	.st2{fill:#FBFBF4;}
	.st3{fill:#DFCC75;}
	.st4{fill:#DBC45E;}
	.st5{fill:#171515;}
	.st6{fill:#E1B526;}
	.st7{fill:#DEB426;}
	.st8{fill:#DDB52B;}
	.st9{fill:#DCB83A;}
	.st10{fill:#F1EDD3;}
	.st11{fill:#F3F3DD;}
	.st12{fill:#DCB635;}
	.st13{fill:#D8B024;}
	.st14{fill:#EDEBD0;}
	.st15{fill:#E0B527;}
	.st16{fill:#F6F3DB;}
	.st17{fill:#78ACBF;}
	.st18{fill:#73CFEB;}
	.st19{fill:#72CEEC;}
	.st20{fill:#FBFBF9;}
	.st21{fill:#E1B424;}
	.st22{fill:#F9FAF5;}
	.st23{fill:#F8F8F8;}
	.st24{fill:#FAFAF8;}
	.st25{fill:#E2D386;}
	.st26{fill:#7ED2E7;}
	.st27{fill:#F7F5EE;}
	.st28{fill:#86C1D5;}
	.st29{fill:#D2D1D2;}
	.st30{fill:#ACE1EE;}
	.st31{fill:#B3DFED;}
	.st32{fill:#C7C7C8;}
	.st33{fill:#CBCBCB;}
	.st34{fill:#8C673A;}
	.st35{fill:#97B6C3;}
	.st36{fill:#BC8C47;}
	.st37{fill:#BC8B49;}
	.st38{fill:#BB8A45;}
	.st39{fill:#E79824;}
	.st40{fill:#97BECF;}
	.st41{fill:#9FC0CC;}
	.st42{fill:#9DBFCF;}
	.st43{fill:#ADE0EB;}
	.st44{fill:#C7E9E9;}
	.st45{fill:#BDE3E9;}
	.st46{fill:#BDE8F1;}
	.st47{fill:#BCE6ED;}
	.st48{fill:#C0E9EF;}
	.st49{fill:#221D18;}
	.st50{fill:#181514;}
	.st51{fill:#8C5D2B;}
	.st52{fill:#6B4C2C;}
	.st53{fill:#DEBA3C;}
	.st54{fill:#DEB838;}
	.st55{fill:#493928;}
	.st56{fill:#393026;}
	.st57{fill:#DFBF4A;}
	.st58{fill:#2D1E17;}
	.st59{fill:#F4F1DB;}
	.st60{fill:#F3EBCB;}
	.st61{fill:#DDC559;}
	.st62{fill:#F3EBD4;}
	.st63{fill:#F4E9CC;}
	.st64{fill:#E6D389;}
	.st65{fill:#E2C55C;}
	.st66{fill:#E9E7BE;}
	.st67{fill:#A46728;}
	.st68{fill:#25180D;}
	.st69{fill:#F5F3E3;}
	.st70{fill:#E99622;}
	.st71{fill:#E89720;}
	.st72{fill:#6E4B27;}
	.st73{fill:#DFB629;}
	.st74{fill:#DCC25A;}
	.st75{fill:#4D3922;}
	.st76{fill:#0F0F0D;}
	.st77{fill:#2E231A;}
	.st78{fill:#382C22;}
	.st79{fill:#BE8C45;}
	.st80{fill:#0A0A0B;}
	.st81{fill:#1C1B1E;}
	.st82{fill:#1D1B1D;}
	.st83{fill:#C9AD8F;}
	.st84{fill:#1E1814;}
	.st85{fill:#100103;}
	.st86{fill:#EDE8BD;}
	.st87{fill:#C6C9CA;}
	.st88{fill:#716B6B;}
	.st89{fill:#0D0402;}
	.st90{fill:#0E0502;}
	.st91{fill:#8B5A28;}
	.st92{fill:#EC9B25;}
	.st93{fill:#08070A;}
	.st94{fill:#1B181E;}
	.st95{fill:#F1CC9A;}
	.st96{fill:#FCFBFB;}
	.st97{fill:#0D0B0D;}
	.st98{fill:#E2DFE2;}
	.st99{fill:#0C0B0D;}
</style>
<g>
	<path class="st0" d="M362.7,276.1c0,13.2-0.1,26.3,0.1,39.5c0,3-0.6,3.6-3.6,3.6c-57-0.1-113.9-0.1-170.9-0.1
		c-32.6,0-65.3-0.1-97.9,0.1c-3,0-3.6-0.6-3.6-3.6c0.1-89.6,0.1-179.2,0-268.8c0-3,0.6-3.6,3.6-3.6c89.6,0.1,179.2,0.1,268.8,0
		c3,0,3.6,0.6,3.6,3.6c-0.1,59.5-0.1,118.9-0.1,178.4c-0.9,0.9-1.9,0.6-2.6-0.2c-3.3-3.7-6.4-7.4-7.6-12.4c1-9.7,3.1-19.3,2.9-29.2
		c-0.9-50.4-22.6-89.5-65.7-115.3c-38.2-22.8-78.6-24.4-119.8-7.8c-9.7,3.9-18.3,9.3-26.8,15.3c-1.8,1.2-3.4,2.7-5.6,3.2
		c-5.8,0-11.5,0.9-16.9,3.2c-1.8,0.8-3.3,1.6-3.1,3.9c-0.5,3.8,2.2,3.7,4.7,3.9c0.7,0.3,1.1,0.9,1.2,1.7c-1,4.7-4.8,7.5-7.7,10.8
		c-3.7,4.3-6.3,9.2-9.1,14.1c-1.3,2.3-2.4,4.7-4.7,6.4c-1.1,0.5-2.2,0.3-3.3,0c-5.1-1.6-5.2-1.5-5.6,4c-0.4,5.2,1.1,10,2,15
		c-1.9,8.9-4.1,17.8-5.1,27c-2.5,23.6,1,46.2,10.7,67.8c16,35.4,42.5,59.9,79.2,72.2c40.3,13.5,78.8,8.1,114.9-14.5
		c2.7-1.7,5-3.9,8.2-4.7c3.2-0.3,4.9,1.9,6.8,3.8c0.3,0.3,0.6,0.7,1,1c1.7,1.6,4.4,1.1,6.1,2.7c2.2,0.6,4.1-1.1,6.3-0.8
		c0.6,0,1.6,0.5,1.8,0.1c0.7-1.2-0.5-1.9-1.2-2.2c-5.5-1.8-7.1-7.4-10.6-11c-0.4-0.4-0.2-1.3-0.1-1.9c1.6-2.8,4-4.8,6.8-6.3
		c3.6,2.3,6.6,5.3,9.2,8.7c2.2,2.9,5.8,2.4,7.5-0.7c0.3-1.1,1.1-1.4,2-1.5c1.2-0.2,3.2,1.4,3.2-1.5c0-3.7,1.9-2.1,3.5-1.2
		c0.4,0.2,0.7,0.7,1,1.1c4.9,5.2,8.3,4.9,12.4-1.4C359.6,276.7,360,274.3,362.7,276.1z"/>
	<path class="st1" d="M362.7,276.1c-3.5,1-4.2,4.8-7.1,6.7c-4.9,3.3-6.5,3.8-9.8-1.1c-0.9-1.4-1-3.6-4-3.5c0.5,1.6,2.9,2.7,1.1,4.6
		c-1.9,1.9-2.8-0.7-4.2-0.8c-2.6-0.5-4.5-1.9-6-4c-1-1.4-2-2.7-3.9-2.6c-2.6-0.2-5.3-0.3-5.9-3.7c0-1.6,0.9-2.8,1.9-4
		c8-9.9,14.5-20.7,19.8-32.2c0.7-1.5,1-3.2,2.8-3.9c2.1-0.1,3.1,1.3,4.2,2.7c1,1.7,1.9,3.5,3.4,4.8c6.1,5.3,6.4,11.8,3.5,18.5
		c-1.5,3.4-1.3,5.6,1.5,7.7c1.6,1.2,1.7,3.1,2.6,4.7C362.7,272.1,362.7,274.1,362.7,276.1z"/>
	<path class="st2" d="M362.7,270.1c-0.7-0.9-1.3-2-2.2-2.6c-3.9-3-5.3-5.9-2.8-11c3.3-6.6,1.5-12.8-4.6-17.3
		c-1.5-1.1-1.9-2.6-2.5-4.1c1.5-1.4,3.1-2.7,5-3.4c1.3-0.2,2.9,0.3,2.7,1.3c-0.4,3.8,2.9,2.1,4.3,3.2
		C362.7,247.5,362.7,258.8,362.7,270.1z"/>
	<path class="st3" d="M353.5,213.3c2.6,4.3,4.7,9,9.2,11.9c0,1.7,0,3.3,0,5c-1.1,1-2.3,1.1-3.6,0.7c-3.2-1.8-6.8-3.2-8.9-6.5
		C350.7,220.5,349.9,216.2,353.5,213.3z"/>
	<path class="st4" d="M358.7,230.2c1.3,0,2.7,0,4,0c0,2,0,4,0,6c-2.1,0.8-3.9-0.2-4.9-2.8c-0.4-0.9-1.2-1-2-1.1
		c-0.9-1.2-0.6-2.1,0.5-2.9C357.3,228.7,358.1,229.2,358.7,230.2z"/>
	<path class="st5" d="M353.5,213.3c-1,3.6-1.9,7.2-2.9,10.8c0.4,3.1-0.7,5.8-2.2,8.4c-1.3,0-1.6,1-2,1.9
		c-5.6,13.5-13.5,25.5-22.7,36.7c-0.8,1.4-1.6,2.8-3.3,3.5c-2.2,2.2-4.5,4.4-6.7,6.6c-1.2,2-2.7,3.9-4.5,5.5c-1,0.9-1.9,1.8-3.1,2.4
		c-0.6,0.3-1.3,0.4-2,0.3c-74.3,55-177.6,24.6-208.5-61.6c-10.4-28.8-10.3-58-1.2-87.2c0.2-7.1,3.5-12.9,7.4-18.5
		c2.7-5.2,5.6-10.5,8.6-15.4c2.5-4,6.3-7.8,9.7-11.5c1.1-1.2,2.1-2.5,3.2-3.8c3-6,8.1-9.6,13.6-12.9c17.5-13.5,36.8-23,58.5-27.6
		c76-16.3,152,38.6,160.5,116C357.6,182.4,356.6,197.9,353.5,213.3z"/>
	<path class="st6" d="M136.9,78.3c-4.5,4.3-9.1,8.6-13.6,12.9c-0.5-0.3-0.9-0.7-1.4-1c-2.1-0.7-4.1-1.6-5.1-3.8
		c-1.6-1.6-1.6-3.6,0.4-4.5c5.7-2.5,11.7-4.7,18.1-4.6C135.8,77.4,136.3,78,136.9,78.3z"/>
	<path class="st7" d="M101.9,122c-2.5,6.2-4.9,12.4-7.4,18.5c-4.4-5.8-2.5-12.5-2.3-18.9c0.1-2.2,2.7-2.4,4.8-1.5
		C98.6,120.8,99.7,122.8,101.9,122z"/>
	<path class="st8" d="M320.5,274.6c1.1-1.2,2.2-2.3,3.3-3.5c0.5,4.1,3.8,2.7,6.2,3.1c-0.2,1.1-1.2,2,0.8,2.8
		c2.7,1.1,4.8,3.1,6.1,5.9c0.9,0.3,2.1,0.4,2.1,1.7c0,1-1,1.1-1.8,1.3c-4.5,0.9-8.6,2.1-11-4.1C325.3,279.2,320.6,278.5,320.5,274.6
		z"/>
	<path class="st9" d="M308.7,285.8c1.7-1.5,3.4-3.1,5-4.6c0.2,1.2-0.1,2.8,1.8,3c0.9,0.1,2.2-0.4,2.5,0.9c0.3,1.2-0.9,1-1.6,1.4
		c-0.1,0-0.1,0.2-0.2,0.3c3.4,0.1,3.5,4,5.9,5.1c1,0.5,2.2,0.7,2.9,1.5c1.2,1.4,3.6,2.7,1.8,4.9c-1.8,2.1-2.4-1.6-4-1.3
		c-1.6-0.4-3.3-0.5-4.4-2.1c-2.1-3.2-4.3-6.2-8.7-6.6C308.9,288.2,308.7,286.8,308.7,285.8z"/>
	<path class="st10" d="M308.7,285.8c1.3,0.5,1.1,3.1,3.8,1.9c1.5-0.7,3.4,1,4.5,3c1.4,2.5,2.9,5.2,5.9,6.3c-2.1,0.1-3.9,2.2-6.3,1
		c-0.8-4.7-4.5-1.8-6.8-2.6c-0.1-0.4-0.1-0.8-0.2-1.3c0.2-2,1.3-1.7,2.4-1.3c-1.3-2.4-5.3-1.3-6.4-4.5
		C306.7,287.4,307.7,286.6,308.7,285.8z"/>
	<path class="st11" d="M336.8,282.9c-3.2-2.9-6.2-6.1-11.1-6.3c0.9-2.4,3.4-0.7,4.2-2.4c1.5-0.5,2.2,0.2,3,1.6
		c1.4,2.5,3.1,5,5.9,6.3C338.1,282.4,337.5,282.7,336.8,282.9z"/>
	<path class="st12" d="M305.7,288.3c2.4,1.4,5.8,0.9,7.4,4.1c-0.6,1.4-3-0.3-3.4,1.7c-2.8-0.5-3.5-3.4-5.5-4.8
		C304.7,288.9,305.2,288.6,305.7,288.3z"/>
	<path class="st13" d="M309.9,295.3c6.8-2.6,6.8-2.6,6.8,2.6C315.2,295.3,311.1,299,309.9,295.3z"/>
	<path class="st14" d="M116.8,86.4c1.8,1.1,3.8,2,5.1,3.8C117.4,91.2,116.2,90.3,116.8,86.4z"/>
	<path class="st15" d="M348.4,232.5c-0.9-3.2,1.1-5.7,2.2-8.4c2.7,2,5.4,4.1,8.1,6.1c-2.3-1.2-2.9,0-2.9,2.1
		c-1.6,1.1-2.5,3.5-5.1,2.8C349.9,234.2,349.2,233.4,348.4,232.5z"/>
	<path class="st16" d="M338,272.2c1.2,0.2,1.6,0.7,1.6,1.7c0,1.6-1.2,1.8-2.3,1.8c-0.9,0-1.4-0.8-1.1-1.8
		C336.4,272.9,337.1,272.3,338,272.2z"/>
	<path class="st17" d="M266.8,305.1c-9.6,4-19.7,6.3-30.1,6.9c-2.8-1.1-5.6,0.9-8.4-0.3c-0.4-0.3-1-0.8-0.8-1.1
		c2.7-5.5,0.4-8.6-4.8-10.4c-0.3-0.1-0.3-0.5-0.4-0.9c0.2-5.1-0.4-10.2,0.5-15.2c0.2-0.5,0.4-1,0.8-1.2c7-5.2,7-5.9,0.1-11.3
		c-0.3-0.2-0.4-0.5-0.6-0.8c-0.9-3.1-0.7-6.4-1.6-9.5c0.4-0.7,1-1,1.8-1.2c2.9-0.4,5.8-1.1,5.6-4.7c-0.1-3.2-2.8-4-5.6-4.3
		c-0.8-0.2-1.4-0.5-1.8-1.2c0.5-2.6,0.6-5.3,2.5-7.4c5-1.7,10.1-0.5,15.2-0.9c1.8-0.2,4.1,0.8,5.2-1.6c0.5-8-1.5-15.8-1.1-23.8
		c0.1-2.1-0.3-4.3,1.2-6.2c3.7-1.4,7.2,0.4,10.7,0.9c7.2,0.9,14.5,1.7,21.6,3c2,0.4,4.1,0.8,4,3.5c-0.5,15.6,0.3,31.2-0.4,46.8
		c-3.1,2.7-3.6-2.3-5.4-1.8c1.5,0.5,2.4,2.9,4.7,2.9c1.6-1.5,0.9-3.4,0.9-5.2c0.1-12.7,0-25.4,0-38.1c0-2.4-0.4-5.2,3-5.9
		c11.5,0.8,22.4,4.2,32.7,9.1c5.4,2.5,10.9,4.8,14.7,9.8c3.1,4,5.2,8,3.9,13.2c-4.8,8.5-10.4,16.4-17.4,23.2c-5,3-7.9,8.5-13.1,11.4
		c-10.6,8.5-22,15.6-34.6,20.7C269,303.8,267.4,303.7,266.8,305.1z"/>
	<path class="st18" d="M123.7,268c-2.6-1.2-2.4-4.7-4.8-6c-0.9-2.1-2.4-3.9-3.5-5.9c-5.3-9.3-3.3-17.7,5.7-23.6
		c7-4.6,14.6-7.7,22.7-9.8c4.2-1.1,8.3-2.2,12.5-3.2c2.1-0.5,4.3-1,6,0.9c1.1,2,0.8,4.2,0.8,6.3c0,11.6,0,23.1,0,34.7
		c0,1.9-0.7,5.1,3.1,2.8c2.6-1.8,5.5-3,7.5-5.6c1.3-1.4,3-2.2,4.6-3.1c2.5-1.4,4.9-2.9,6.9-5c1.3-1.3,2.8-2.3,4.4-3.2
		c2.9-1.4,5-3.9,7.9-5.2c0.5-0.2,1.1-0.3,1.7-0.3c4-0.1,7.9-0.1,11.9-0.1c1.8,0,3.7,0,5.1,1.4c0.9,1.3,0.9,2.8,0.9,4.3
		c0,20.5,0.1,41.1,0,61.6c0,0.7-0.1,1.3-0.3,2c-0.2,0.6-0.6,1.2-1.1,1.6c-29.9-1.4-56.2-11.9-78.8-31.5c-1.7-2.4-3.7-4.6-6.4-6
		l0.1,0.1C129,272.3,126.5,270,123.7,268z"/>
	<path class="st0" d="M279,65.1c37.5,18.6,61,48.4,70.6,88.9c4.7,19.7,4.7,39.5-0.7,59.2c-3.6-2.9-6.2-6.5-9.3-9.9
		c-1.5-1.5-4.7-1.4-4.5-4.6c0.3-0.8,0.4-1.6-0.6-1.9c-3.1-0.9-4.3-3.6-5.7-6.2c-4.3-4.7-9.4-8.4-14.6-12.1
		c-7.4-3.9-14.8-7.6-22.4-11c-2.2-1-4.3-2.2-4.3-4.9c0-8.6-0.9-17.3,0.5-25.9c0.9-1.4,2.3-0.9,3.6-1c8.7-0.4,15.1-5.7,15.7-13
		c0.8-8.8-4-14.8-13.3-16.6c-3.4-0.7-4.8-2.9-4.7-6.3c0.1-1.5-0.1-2.9-0.5-4.3c-0.6-2.3-0.2-4.6-0.9-6.9c-0.4-1.6-0.4-3.4-0.9-5
		c-0.3-1.1-0.6-2.2-1.1-3.3c-1.3-4.4-3.8-8.1-7.1-11.3c-0.9-0.9-1.7-1.8-1.5-3.2C277.6,65.1,278.1,64.7,279,65.1z"/>
	<path class="st0" d="M161.8,220.2c-13.7,2-27,5.3-38.9,12.7c-9.8,6-11.6,13.6-6.3,23.8c0.9,1.7,2.6,3.1,2.3,5.4
		c-24.3-32.3-32.3-68.2-23.8-107.8c1.7-2.5,2.7-0.2,4,0.5c6.6,8.8,14.5,15.6,26.1,16.4c1.2,0.1,2.6,0.3,3,1.5c1.3,4.4,5.1,5,8.6,5.9
		c5.1,1.3,9.7,3.4,14.1,6.1c13.3,7.9,27.3,14.6,38.9,25c1.9,1.7,5.8,2.4,4.6,6.5c-4.7,2.4-10,2.1-15,3c-5,1-10.1,1.8-15.2,2.3
		C163.2,221.1,162.5,220.7,161.8,220.2z"/>
	<path class="st1" d="M340.5,202.2c2.5,3.9,7.2,6.1,8.4,11c-2.2,12.6-7.5,23.9-13.8,34.9c-0.9-9-5.8-15.1-13.7-19.2
		c-11.6-6.1-23.8-9.9-36.7-11.9c-11.2-4.5-23.3-4-34.9-6.3c-2-0.4-3.8-0.9-5.6-1.8c-1.2-2-1-4.1-1-6.3c0-9,1.8-10.8,10.6-10.9
		c3,0,5.9,0.3,8.9-0.4c0.5-0.1,1-0.2,1.4-0.3c14.7-1.6,19.1-5.6,22.4-20.5c0.2-0.8,0.4-1.6,0.9-2.3c4.8-1.5,9,0.3,10.2,4.5
		c4.1,6,10.4,9,16.3,12.4c1.4,1.2,3.1,1.3,4.8,1.6c2,1,2.1,3.7,4.1,4.7c0.5,0.4,1,0.8,1.4,1.2c0.8,0.1,0.9,2.2,2.2,0.7
		c0.1-2.1,0.8-3.6,3.3-3.3c1.3,3.5,4.2,5.4,7.1,7.3c0.1,0,0.1,0.4,0,0.4c-0.3,0.2-0.6,0.3-0.9,0.4
		C335.4,201.5,337.3,203.1,340.5,202.2z"/>
	<path class="st1" d="M98.3,142.2c1.8-6.2,4-12.3,7.4-17.9c2.8-0.3,5.9,0.2,7.8-2.9c0.6-0.9,2-1.1,3.2-0.7
		c4.4,2.4,10.9,2.9,15.3,3.3c2.9,4.6,5.2,9.7,11.5,10.9c2.8,0.5,5.5,0.8,8.3,0c5.1-1.5,5.6-1,5.5,4.5c-0.1,7.8-0.1,15.6-0.1,23.4
		c0,2-0.1,4,0.4,6c0.1,0.8,0,1.6-0.4,2.3c-5.3,1-9-2.6-13-4.8c-4.8-2.7-9.6-5.1-14.7-7.1c-5.4-2.2-10.6-4.8-14.1-9.7
		c-1.1-1.6-2.7-2.2-4.7-2.3c-2.5-0.1-4.9-0.5-7.4-0.9C101,145.8,98.9,144.9,98.3,142.2z"/>
	<path class="st19" d="M215.8,312.8c0-0.3,0-0.5,0.1-0.8c0.9-1.7,0.4-3.6,0.4-5.4c0.2-21.1-0.2-42.2,0.2-63.3c2.4-2,4.8-1.9,7.2,0
		c-0.1,2.5,0.7,5.1-1.9,6.9c-2.1,3.7-2.2,7.4,0,11.1c3.4,2.8,1.4,6.6,2,10c-0.1,0.7-0.5,1.3-1.1,1.7c-3.4,2.5-3.5,5.3-0.6,8.3
		c0.6,0.6,1.4,1.2,1.6,2.1c-0.4,5.6,1.1,11.3-0.9,16.8c0,0.7-0.4,1.3-0.8,1.9c-2.5,3.1-3.1,5.9,0.9,8.2c1.5,1,3.5-0.5,4.9,0.9
		c2.9,0.5,6.1-1,8.9,0.9C229.8,313.4,222.8,313.4,215.8,312.8z"/>
	<path class="st20" d="M117.2,105.3c3.6-5.2,7.6-10.1,12.4-14.3c5.3-1.3,9.7,0.6,13.6,4.1c2.3,2.1,4.7,4.1,8.1,4.6
		c2.2,0.3,2.8,2,3.3,3.8c0.1,0.8,0.1,1.5-0.3,2.3c-0.7,1.1-1.8,1.3-3,1.1c-4.1-0.7-8.1,0.2-12.1,1.2c-2.7-0.3-5.4-0.4-8,0.4
		c-3.1,0-6.2,3-9.2,0C120.7,106.9,118.4,107,117.2,105.3z"/>
	<path class="st21" d="M153.7,103.3c-0.9-2.5-3.4-2.1-5.3-3c-2.9-1.5-5.7-3.7-8-6.1c-3.1-3.2-7.5-1.3-10.8-3.3
		c3.6-4.2,7.6-8,12.3-10.9c5.3-0.1,10.2,1.6,15.2,3.1c1.8,4.3-1.2,8.2-0.9,12.4C156,98.3,157.1,101.5,153.7,103.3z"/>
	<path class="st22" d="M98.3,142.2c3.8,4.1,8.9,3.4,13.7,3.5c1.5,0,2.6,0.1,3.3,1.2c4.6,7.8,12.6,10.5,20.4,13.4
		c6.1,2.2,10.8,6.6,16.6,9.2c1.4,0.6,3.4,0.2,4.4,1.8c1,0.7,1.1,1.7,1,2.7c-0.7,2.1-2.4,2.5-4,1.5c-3.2-2-6.4-3.3-10.2-3.8
		c-0.8-0.1-1.3-0.9-1.9-1.5c-6.3-7.3-15-10.1-23.7-12.9c-3.6-1.2-7.4-1.9-10.7-3.9c-3.6-2.1-6.9-1.9-9.5,1.8
		c-0.8-0.5-1.1-2.3-2.6-1.1C95.5,150,96.8,146.1,98.3,142.2z"/>
	<path class="st23" d="M178.9,59.4c29-9.9,57.9-10,86.9,0c0.3,0.6,0.1,1.1-0.4,1.4c-0.8,0.4-1.6,0.6-2.5,0.7
		c-10.7-2.3-21.5-3.7-32.4-4.5c-9.7-0.7-19.3,0.6-28.8,1.2c-6,0.4-11.9,1.3-17.7,2.8c-1.5,0.4-3,0.5-4.4-0.2
		C178.7,60.5,178.6,60,178.9,59.4z"/>
	<path class="st24" d="M156.6,83.6c-5.1-0.2-10-1.4-14.7-3.6c7.1-6.3,15.1-11,23.7-14.9c0.9-0.5,1.3,0,1.4,0.8
		c-1.3,3.2-2.9,6.2-5.3,8.7c-1,1.2-1.6,2.5-2.2,3.9c-0.4,1-0.7,2.1-1.1,3.1C158,82.4,157.6,83.3,156.6,83.6z"/>
	<path class="st25" d="M117.2,105.3c1.6,0.5,3.7-0.2,4.8,1.8c0.4,1.9,0.9,3.7,2.2,5.4c2.3,3,1.9,3.6-2.2,4.3c-1.6,0.2-0.7,1.5-1,2.3
		c-0.8,2.6-2.2,3.4-4.6,1.7c-2.4-1-6.2-1.1-3.3-5.5c0.3-0.5-0.9-1.9-0.4-3.1C113.6,109.4,115.7,107.5,117.2,105.3z"/>
	<path class="st26" d="M266.8,305.1c-2.9-1.2,0-1.5,0.4-1.6c8.5-2.8,16.2-7.2,23.7-12c4.7-3,9.2-6.3,13.9-9.4
		c0.6-0.4,1.1-0.3,1.5,0.3C294.6,292.5,281.5,300.2,266.8,305.1z"/>
	<path class="st27" d="M112.7,112.1c-0.1,1.5,3.2,2.4,0.1,4.7c-1.1,0.8,2.6,2.3,4,3.6c0.3,0.2,0.4,0.5,0.3,0.7
		c-0.1,0.2-0.2,0.3-0.3,0.3c-1.3-0.2-2.7,0.4-3,1.3c-1.8,5.2-5.1,2.8-8.1,1.8C107.4,119.9,109.9,115.9,112.7,112.1z"/>
	<path class="st28" d="M306.3,282.3c-0.5-0.1-1-0.2-1.5-0.3c3.4-3.2,6.7-6.4,10.1-9.4c0.8-0.7,1.2-2.6,3-1.4
		C314.4,275.4,310.6,279.2,306.3,282.3z"/>
	<path class="st29" d="M265.7,60.6c0-0.4,0-0.8,0-1.2c4.7,1.3,9.2,3,13.3,5.7c-0.4,0.4-0.8,0.8-1.2,1.2
		C273,66.1,269.1,63.8,265.7,60.6z"/>
	<path class="st30" d="M123.7,268c3.7,1.2,5.9,3.6,7,7.3C128,273.3,125.8,270.7,123.7,268z"/>
	<path class="st31" d="M130.7,275.2c3.2,0.8,5.5,2.6,6.4,6C134.7,279.5,132.4,277.7,130.7,275.2z"/>
	<path class="st32" d="M178.9,59.4c0,0.4,0,0.8,0,1.2c-1.1,2.5-3.5,2.6-5.8,3c-0.7-0.2-1.2-0.7-1.4-1.4
		C173.9,60.8,176.3,59.9,178.9,59.4z"/>
	<path class="st33" d="M171.7,62.2c0.4,0.2,0.8,0.5,1.1,0.7c-0.9,2.2-3,2.7-4.9,3.6c-0.5,0.1-0.9-0.1-1.1-0.6
		c-0.4-0.3-0.8-0.5-1.3-0.8C167.4,63.7,169.4,62.6,171.7,62.2z"/>
	<path class="st34" d="M223.8,243.2c-2.3,0-4.6,0-6.9,0c-0.4,0.5-0.7,0.5-1.1,0c-6,0-11.9,0-17.9-0.1c-0.3-0.6-0.2-1.1,0.4-1.5
		c7.4-1.8,14.7-1.2,21.9,0.2c-3.2,0.1-3.9-2.2-3.5-4.9c1.7-13.5-0.7-27.3,2.1-40.8c0.7-3.1-2.9-1.3-3.1-3.2c1.1-2.6,3.5-2.1,5.5-2.1
		c6.2-0.2,12.5,0.1,18.7-0.2c6-0.2,12-0.1,17.9,0c2.1,0,4.4-0.2,6.1,1.6c-4.1,1.7-8.5,0.8-12.7,0.8c-4.6-0.1-6.2,2.1-6.3,6.2
		c-0.1,3.3-0.1,6.6-0.1,9.9c-0.3,0.8-0.5,1.6-0.5,2.5c0.2,6-0.4,12,0.5,18c0.1,3.2-0.2,6.4,0.2,9.6c0.3,1,1.4,1.5,1.8,2.4
		c-0.8,2.2-2.8,1.3-4.3,1.3C236.3,243.1,230,243.2,223.8,243.2z"/>
	<path class="st35" d="M244,210.2c0.2-0.4,0.5-0.7,0.7-1.1c9.9,1.4,19.7,2.9,29.6,4.1c3.8,0.5,7.2,2.1,10.5,3.8
		c-3.3-0.1-3.1,2.2-3.1,4.5c0,14,0,28,0,42c0,1.1,0.8,2.9-1.2,3.2c-0.9,0.2-1.4-0.8-1.8-1.5l0.1-0.1c1.5-1.3,0.9-3.1,0.9-4.7
		c0.1-14.1,0-28.3,0.3-42.4c0.1-3.1-1.6-2.6-3.4-2.9c-10.6-1.7-21.3-2.5-31.8-4.9C244.5,210.7,244.2,210.7,244,210.2z"/>
	<path class="st36" d="M227.8,311.1c-1.7,0.2-3.4,1.7-5.2,0.2c0.1-3.5,0.1-6.9-0.9-10.3c0.4-0.3,0.7-0.6,1.1-1
		C230.6,300.7,232.3,304.6,227.8,311.1z"/>
	<path class="st37" d="M222.6,271.9c0.4-0.2,0.8-0.5,1.2-0.7c3.5,0.7,6.4,2.1,6.3,6.2c0,4-2.6,5.7-6.4,5.9c-0.7-0.3-1.4-0.6-2.1-1
		C222.8,278.9,222.2,275.4,222.6,271.9z"/>
	<path class="st38" d="M223.8,250.2c4.1-0.6,6.2,1.6,6.3,5.2c0.1,3.8-2,6.2-6.3,5.7C221.6,257.5,221.6,253.8,223.8,250.2z"/>
	<path class="st39" d="M223.8,250.2c0,3.6,0,7.3,0,10.9c-0.6,0-1.3,0-1.9,0.1c-4.6-4.2-4.6-6.8,0-11.1
		C222.5,250.1,223.1,250.2,223.8,250.2z"/>
	<path class="st40" d="M244,210.2c0.3,0,0.6,0,0.8,0.1c-0.3,10.5,0.3,21,1.9,31.3c-0.7-0.6-1.4-1.1-2.1-1.7
		c-0.9-3.1-0.1-6.3-0.5-9.5C243.7,223.7,243.6,217,244,210.2z"/>
	<path class="st41" d="M263.4,253.1c-5.9-2.3-10.6-6-14.5-10.8C253.7,245.9,258.6,249.5,263.4,253.1z"/>
	<path class="st42" d="M278.7,265.2c-2.7-0.6-4.6-2.4-6.3-4.4C275.4,260.9,277.2,262.8,278.7,265.2
		C278.8,265.1,278.7,265.2,278.7,265.2z"/>
	<path class="st18" d="M163.8,220.2c10.5-1.7,21-3.4,31.5-5.1c0.6-0.2,1.2-0.2,1.7,0.2c1.7,2.2,1.2,4.8,1.2,7.2
		c-0.1,6.1,0.5,12.3-0.4,18.4c-1.6,3.7-5.5,4.9-8,7.6c-1.3,0.9-2.6,1.8-3.8,2.7c-2.4,1.7-5,3.2-7.2,5.2c-1.3,0.9-2.6,1.9-4,2.8
		c-2.6,1.9-5.2,3.6-7.9,5.3c-2,1.9-4,2.6-4-1.2c-0.1-13.8-0.2-27.6,0.1-41.4C163,221.3,163.4,220.7,163.8,220.2z"/>
	<path class="st43" d="M163.8,220.2c0,15,0,30,0,45c2,0.3,2.6-1.7,4-2c0.4,0.2,0.5,0.4,0.3,0.7c-0.1,0.2-0.2,0.3-0.4,0.3
		c-0.6,0.7-1.2,1.6-2,2.2c-0.9,0.6-2.2,1.5-3.1,1.3c-1.6-0.5-1-2.2-1-3.4c0-14.7,0-29.4,0-44.1C162.5,220.2,163.2,220.2,163.8,220.2
		z"/>
	<path class="st44" d="M215.7,243.2c0.4,0,0.7,0,1.1,0c0,21.2,0,42.4-0.1,63.6c0,1.7,0.8,3.7-0.9,5.1
		C215.8,289.1,215.8,266.1,215.7,243.2z"/>
	<path class="st45" d="M196.7,242.1c0-7.4,0.1-14.8,0.1-22.2c0-1.7,0.7-3.7-1.5-4.8c0.4-1.1,1.2-1.4,2.3-1c0.3,0.6,0.2-0.3,0.3,0.3
		c2.2,9.3,2.5,18.6-0.2,27.8c-0.1,0.3-0.1,0.6,0,0.9c-0.3,0-0.7,0.1-1,0.1C196.3,242.9,196.3,242.5,196.7,242.1z"/>
	<path class="st46" d="M196.7,242.1c0,0.4,0.1,0.8,0.1,1.2c-1.8,2.5-4.3,3.9-7.1,5.1C191.1,245.2,194.7,244.5,196.7,242.1z"/>
	<path class="st47" d="M167.9,264.3c0-0.3,0-0.7,0-1c2.3-1.4,4.1-3.7,7-4.1C173.2,261.8,170.6,263.2,167.9,264.3z"/>
	<path class="st48" d="M178.8,256.4c1.5-2.9,4.2-4.3,7.2-5.2C184.2,253.8,181.6,255.1,178.8,256.4z"/>
	<path class="st34" d="M294.8,105.1c9.1,1.1,15.2,8.9,14.1,18.1s-9.6,14.9-20.2,13.4c-1.1,3.1-0.2,6.4-0.5,9.6
		c-0.2,1.5,0.6,3.3-0.8,4.6c-1.5,0.9-3.1,1-4.8,1c-18.7,0.1-37.3,0-56-0.2c-1,0-2-0.1-2.9-0.5c-2.1-2.2-4.4-3.8-7.6-3.8
		c-1.1,0-2.3-0.5-2.5-2c3-2.6,6.6-1.1,10-1.5c3-0.4,6.3,0.9,9-1.6c-7.1,2.4-14.3,1.3-21.4,1c-1,0-3.5-0.1-1.9-2.6
		c2.3-1.3,4.9-0.9,7.3-0.9c3,0,4.7-1,4.7-4.3c-0.3-14.4,1.3-28.8,1.3-43.2c0-2.4-0.9-3.3-3.2-3.4c-2.3-0.1-4.7,0.1-7-0.1
		c-1.9-0.2-4.1,0.2-4.8-2.4c2.2-2,5-1.5,7.6-1.5c12.6,0.2,25.2-0.1,37.7-2c3.6-0.6,7.2-1.2,10.7-2.3c2.4-0.8,4.9-1.6,7.5-2
		c0.9-0.1,1.8,0.1,2.6,0.6c2.5,3.2,1.2,6.9,1.4,10.3c0.2,2.1,0.1,4.2,0.1,6.3c-0.3,3.3,0,6.6-0.1,10c-0.2,4.4,2.1,6.3,6.2,6.9
		c6,0.9,7,0.5,9.5-5C291.7,105.5,293.4,105.8,294.8,105.1z"/>
	<path class="st49" d="M272.7,79.1c-0.6,0.1-1.3,0.2-1.9,0.3c-0.9-1.8-2.2-2.9-4.3-2.7c-10.8,1.2-21.5-0.7-32.3-1
		c-3.4-0.1-6.6,0.3-9.4,2.6c-2,1.6-4.7,1.4-7.2,1.4c-11,0.3-21.9-1.6-32.9-1c-2.8,0.2-5.7,0.1-8.2,1.8c-1.4,0.7-2.7,0.4-3.9-0.3
		c-4-2.9-7.9-4-12.2-0.4c-1.8,1.4-2.2,0-1.6-1.7c0-1.6,0.7-3,2-4c1.7-0.4,2.8-2.1,4.7-2.1c11.9,1.4,23.8,0.4,35.7,1.6
		c6.3,0.6,12.6,0.2,18.9,0.2c1.4,0,2.6-0.5,3.2-1.9c1.8-4.5,4.9-6,9.8-5.4c7.1,0.8,14.2,0.1,21.3,0.1c8.5,0,17,0.1,25.4,2
		c3.6,3,6.3,6.5,7.2,11.2c0.1,1.1,0.4,3.5-1.4,2c-3.1-2.7-6.3-2-9.7-1.8C274.7,80.1,274,78.5,272.7,79.1z"/>
	<path class="st50" d="M279.8,68.6c-4.7,0-9.5,0.7-14.1,0c-5.5-0.9-10.8-0.5-16.2-0.4c-6.3,0.1-12.6,0.8-18.9-0.6
		c-3.3-0.7-5.1,1.7-5.9,4.7c-1.7,2.1-4,2-6.3,2c-13.7-0.4-27.4-1.7-41.1-1.5c-2.5,0-4.9-0.9-7.4-1c-2.2-0.1-4.3,0.2-6.1,1.5
		c-1.1,0-1.6,2.4-3.1,0.8c2.2-2.6,3.1-6.2,6.1-8.2l-0.2,0.2l0.1,0.2c7.9-1.5,15.9-0.5,23.7,0.2c10,0.9,19.9-0.4,29.9,0.7
		c2.6,0.3,3.2-1.9,3.9-3.8c2.4-6.1,4-7.1,10.1-5.3c3.5,1.1,7,0.1,10.4,0.1c6.5-0.1,12.5,2.8,19,2.1c0.7,0.1,1.3,0.1,2,0.2
		c4,1.9,8,3.8,12.1,5.6C278.4,67,279.1,67.8,279.8,68.6z"/>
	<path class="st51" d="M294.8,105.1c-1.3,1.3-3.6,1.8-3.1,4.5c0.8,3.8-1.2,5.1-4.8,4.6c-1.3-0.2-2.7,0-4,0c-7.9-0.4-9.2-1.7-9.2-9.5
		c0-2.8,0-5.7,0-8.5c2.7,2.3,5.3,4.4,9.2,4.6c3.1,0.1,5.7,0.4,5.7-3.8c0-0.8,0.4-1.6,1.2-2c0.2,1.8,0.8,3.6,0.7,5.3
		C290.3,103.6,291.7,104.9,294.8,105.1z"/>
	<path class="st52" d="M289.9,95c-0.6,8.6-0.5,8.4-9.3,6.9c-3.7-0.6-6.3-1.7-6.9-5.6c-0.7-5.7,1.4-11.6-1.1-17.1
		c0.8-0.8,1.5-0.9,2.2,0.1c1.4,1.7,1.4,3.6,1.3,5.6c0,6,0,6,6,6c2.7,0,6,1.4,6.8-2.9C290,90.2,289.9,92.6,289.9,95z"/>
	<path class="st53" d="M287.7,150.3c0.9-4.5-1-9.3,1-13.7c0,8.5,0,16.9-0.2,25.4c-0.1,2.6,1.3,3.3,3.3,4.2c8.2,3.5,16.4,7,23.9,12
		c0.4,1.6,0.1,2.7-1.8,2.4c-1.6-0.2-3.2-0.9-4.9-0.9c-4.8-1.4-8.6-4.9-13.3-6.6c-0.2-0.7,2.4-0.9,0.3-1.9c-2.5-1.2-4.9-2.8-7.8-3
		c-0.6-0.1-1.1-0.4-1.3-0.9c-1-5.1-0.7-10.3-0.2-15.5C287,151.2,287.3,150.7,287.7,150.3z"/>
	<path class="st54" d="M309.7,179.3c1.4-2,2.8-0.3,3.8,0.3c2.1,1.2,1.3-1.2,2.2-1.5c5.3,3.2,9.9,7.3,14,12c-1.2,1-3.5,1.4-2,3.8
		c-1.8,2.3-2.6-1.2-4.1-0.7c-0.3-0.3-0.6-0.7-1-1c-1.8-1.3-1.8-4-4-5c-2,1.3-3.6,0.7-5-0.9c0.1-1.9-1.1-2.5-2.6-3.1
		C309.4,182.4,308.3,181.3,309.7,179.3z"/>
	<path class="st55" d="M288.9,87.9c0.2,3.2-0.4,5.6-4.5,4.4c-0.9-0.3-2,0-3,0c-6.7,0-6.7,0-6.6-7c2.2-2.7,5.3-2.2,8.2-2.1
		c1.6,0.1,3.2,1,4.8-0.1C288.8,84.5,288.8,86.2,288.9,87.9z"/>
	<path class="st56" d="M287.9,83c-0.5,0.8,0.7,3.2-1.9,2c-3.7-1.6-7.4-0.7-11.1,0.2c0-2,0-4,0-6c4.1-0.8,8.4-2.8,11.6,1.9
		c0.2-0.5,0.3-0.9,0.5-1.4C287.8,80.7,287.9,81.9,287.9,83z"/>
	<path class="st57" d="M340.5,202.2c-2.3,0.1-0.3,2.3-1.4,3c-0.7,0.5-1.3,1.1-2.2,0.7c-1.1-0.5-0.8-1.2-0.1-1.9
		c0.7-0.8,0.6-1.4-0.5-1.8c-4.1-1.2-1.9-2.6-0.2-4C335.2,202.2,340,199.8,340.5,202.2z"/>
	<path class="st21" d="M197,214.1c-0.6,0.3-1.1,0.6-1.7,0.9l0,0c-6.2-4.7-12.5-9.3-18.6-14c-8.4-6.4-18.7-9.6-27.2-15.8
		c-5.8-4.3-13.1-4.6-19.3-7.8c-1.5-0.8-4.5-0.2-2.7-3.7c0.7-1.5-1.1-1.1-1.9-1.2c-5.5-0.5-10.8-2.1-15.4-5c-4-2.5-7.7-5.7-9.9-10
		c-0.6-1.2-1.4-1.7-2.4-2.3c0.7-4.9,2.6-5.9,6.9-4.1c5.5,2.3,11.5,3.4,16.7,5.6c7.4,3.1,16.2,5.1,21.2,12.8c0.5,0.7,1,1.7,1.8,1.5
		c4.3-1,7.1,1.7,10.2,3.8c0.9,0.6,1.9,0.7,2.5-0.5c2.1,0.2,1.9,2,2.3,3.3c3.4,10.8,7.8,14.2,18.9,14.3c1.6,0,3.3,0,4.9,0.4
		c2.2,0.8,3.9,2.4,5.9,3.9c0.3,0.4,0.5-0.9,0.1-0.4c-1.6-1.2-2.5-2.4,0-3.6c2.9-0.5,5.8-1.1,8.2,1.2
		C198.8,200.4,199.3,207.3,197,214.1z"/>
	<path class="st58" d="M287.7,150.3c0,0.3,0,0.7,0,1c-0.6,5.6-0.9,11.3,0.2,16.9c0.2-0.1,0.3-0.1,0.5,0c-0.6,2.7-0.9,5.6-1.8,8.2
		c-3.9,11.7-9.3,15.4-22.7,15.8c-8,0-16,0-24-0.1c-5.6-1.1-11.2-0.3-16.8-0.5c-5-0.2-5.7-0.9-4.6-5.9c0.3-1.5,0.8-2.9,1.6-4.2
		c2.5-3,6.3-0.9,9.2-2.2c8.9-3.6,14-11,18.3-19c0.4-0.9,0.2-1.5-0.9-1.7c-6.8-0.2-13.5,0-20.2-0.1c-2.1,0-4.3,0.4-6-1.5
		c-0.6-3.7,1.3-5.3,4.7-5.3c4.4,0,8.9,0,13.3-0.2c-25.2,1.9-50.5,1.2-75.7,1.3c-2.1,0-4.4,0.2-6.1-1.6c0.6-2.7,2.9-2.5,4.8-2.5
		c18.9-0.2,37.8-0.2,56.7,0c1.7,0,3.3,0.4,4.6,1.6C244.4,150.3,266.1,150.3,287.7,150.3z"/>
	<path class="st59" d="M309.7,179.3c0,1.9,0.6,2.9,2.8,3.1c3,0.3,2.7,2,1.2,3.9c-3.2-1.3-6.2-3.1-9.1-4.7c-3.5-1.9-5.9-5.6-8.9-8.5
		C301.3,173.1,305.1,177.2,309.7,179.3z"/>
	<path class="st60" d="M332.7,215.2c4.2,0.9,4.8,5.4,8.5,7.9C335.5,222.6,334,219,332.7,215.2L332.7,215.2z"/>
	<path class="st61" d="M324.5,205.3c1.4,0.4,1.6,1.8,2.3,2.7c-1.6,1.5-3.2,0.7-4.8,0.2c-2.3,0.2-4.2-0.9-6-2c-1.6-1,0.6-1.3,0.7-2
		C319.6,202.9,321.7,206.4,324.5,205.3z"/>
	<path class="st62" d="M324.5,205.3c-3.2,4-5.1-1.2-7.7-1.2C320,200,322.1,203.8,324.5,205.3z"/>
	<path class="st63" d="M322,208.2c1.6-0.1,3.2-0.1,4.8-0.2c1.4,1.4,1.9,3-0.1,3.9c-1.1,0.5-3.3,0.4-2.5-2.4
		C324.3,209.1,322.2,209.5,322,208.2z"/>
	<path class="st64" d="M303.5,198.7c-1.7-1.4-2.9-2.3-4.1-3.4C303.3,193.9,303.3,193.9,303.5,198.7z"/>
	<path class="st65" d="M323.7,193.2c0.3-1.2,0.7-2.6,1.9-0.7c0.6,1,1.1,1.6,2.2,1.5c1.6,2.3,0.2,2.6-1.5,1.9
		C325.3,195.4,324.6,194.1,323.7,193.2z"/>
	<path class="st65" d="M318.7,187.2c3,0.3,3.4,2.7,4,5C319.4,192.1,320,189,318.7,187.2z"/>
	<path class="st66" d="M332.7,215.2c-1.2-0.6-3,0.9-3.8-0.9c-0.4-0.9,0.7-1.5,1.3-1.6C332.1,212.4,332.9,213.4,332.7,215.2
		L332.7,215.2z"/>
	<path class="st67" d="M222.8,150.2c-20.3,0-40.5,0.1-60.8,0.2c-1.7,0-3.7-0.8-5.2,0.8c2.4,6,2.6,12.1-0.1,18.1
		c-1.7-6-0.6-12.2-0.8-18.3c-0.2-5.3,0-10.6,0-16.3c-4.9,2.8-9.9,3-15.1,1c-5.4-2.1-7.7-6.5-9.6-11.4c-1.8-1.5-1.5-3.4-1.3-5.3
		c1.3-5.2,2.8-10.3,9-11.7c3.9-2.1,8-2.5,12.3-1.7c1,0.2,2.2,1.2,2.9-0.4c0.9,0,1.3,0.7,1.6,1.4c0.5,1.8,1.7,2.7,3.7,2.5
		c1.3-0.1,2.6-0.2,4-0.1c7.1,0.4,7.2,0.4,7.2-7c0-5.8,0-11.6,0-17.3c0-1.8-0.1-3.7,0.9-5.3c0.4-0.5,0.9-0.6,1.4-0.3
		c0.9,0.7,1.8,1.3,3,1.1c4.4-0.9,8.2,2,12.4,2.1c4.7,0.8,9.4,1.2,14.1,1.9c1.9,0.3,4,0.4,5.4,2c4.3,2,8.8,0.6,13.2,0.9
		c3,0.2,4.5,0.8,3.3,4.1c-0.4,1.1-0.5,2.3-0.5,3.4c-0.4,13.9-0.8,27.8-0.9,41.7c0,3.7-1,5.1-4.8,4.8c-3.1-0.3-6.3,0-9.5,0
		c-0.8,0.3-1.6-0.2-2.5-0.5c1,4.3,5.7,2.1,7.6,4.5c1.5,1.5,3.5,1,5.2,0.8C222.1,145.9,223.1,147.4,222.8,150.2z"/>
	<path class="st68" d="M156.7,169.3c0-6,0.1-12.1,0.1-18.1c27.5,0,55.1,0,82.6,0c0,0.3,0,0.7,0,1c-4.1,0-8.1,0.2-12.2-0.1
		c-3.8-0.2-6,1.1-6.5,5c-2,2-4.6,1.3-7,1.4c-4.4,0.2-8.9-0.3-13.3,0.3c-0.4,0.3-0.6,0.6-0.8,1.1c0.9,6.2,2.7,12.3,4.5,18.3
		c0.2,0.4,0.5,0.8,0.9,1.1c3.4,0.9,6.8,0.2,10.3,0.4c1.9,0.1,4-0.3,5.5,1.4c0,0.5,0,1-0.1,1.5c-2,8.5-2,8.4,7,8.6
		c4,0.1,8.2-1.1,12,0.9c-8,0.7-16.2-0.6-24.2,0.9c-6.2,2.8-12.5,2.6-18.7,0.1c-3.1,0-6.3,0.1-9.4,0.1c-1.2,1.1-2.4,0.7-3.6,0
		c-2.1-0.1-4.3-0.2-6.4-0.2c-11,0-16.9-4.7-19.5-15.5c-0.3-1.1-0.6-2.2-0.9-3.3c-0.1-1-0.2-2-0.3-3
		C156.7,170.6,156.7,170,156.7,169.3z"/>
	<path class="st69" d="M131.1,118.2c0,2.1,0,4.1,0,6.2c-2,2.9-4.2,0-6.3,0.3c-3.3,0.4-5.9-0.9-8-3.3c0-0.3,0-0.7,0-1
		c3.5,1.4,3.5-1,2.9-3c-0.9-2.8,1-2,2.2-2.1c2.5,2.7,5.2,4.4,8.8,1.8c0.3,0.2,0.5,0.4,0.5,0.7C131.2,118,131.1,118.2,131.1,118.2z"
		/>
	<path class="st70" d="M221.7,301c3.6,3.2,2.5,6.7,0.9,10.3C217.4,308.4,217.1,305,221.7,301z"/>
	<path class="st71" d="M222.6,271.9c1.2,3.6,3.1,7.3-1,10.5C217.2,278.2,217.5,275,222.6,271.9z"/>
	<path class="st72" d="M154.9,106.1c-0.3-0.3-0.6-0.6-0.9-0.9c-0.1-0.6-0.2-1.3-0.3-1.9c1.8-2.5,0.7-5.4,1.3-8.1
		c4.1-5.2,10.4-5.5,16.2-0.7c0.3,8.3,0.3,8.6-7.7,8.1C159.7,102.3,157.7,104.7,154.9,106.1z"/>
	<path class="st73" d="M131.1,118.2c-0.2-0.1-0.3-0.3-0.3-0.6c-2.1-0.8-5-0.4-5.4-3.7c-0.2-1.5-0.7-2.9,0.9-3.9
		c1.5-1,2.9-2.1,4.6-2.7c2.6-0.8,5.3-1.9,7.9,0C135,110.1,132,113.4,131.1,118.2z"/>
	<path class="st74" d="M130.9,107.2c-0.2,0.2-0.4,0.5-0.6,0.7c-5.8,5.2-5.8,5.6,0.6,9.6c-1.5,0.7-0.4,4-1.8,3.3
		c-2.6-1.3-6.5-1.6-7.1-5.6c0.8,0.3,1.7,1.5,2.5,0.2c0.5-0.8,0.3-1.8-0.6-2c-4.6-1.1-2.3-3.9-1.8-6.4
		C124.9,110.3,127.9,106.4,130.9,107.2z"/>
	<path class="st75" d="M170.8,94.2c-5.4-1.6-10.8-3.2-15.8,1c-0.5-4,1.8-7.6,1.6-11.6c0.3-0.9,0.7-1.8,1-2.6c2.8,1,5.7,0.9,8.6,1
		c2.1,0.1,4.3,0.3,5,2.9C171,88,171.9,91.2,170.8,94.2z"/>
	<path class="st76" d="M263.8,60.4c-1.6,1.4-3.3,0.6-5.1,0.4c-6.4-1-12.8-1.6-19.3-0.6c-1.9,0.3-3.8,0.3-5.8-0.7
		c-4.2-2.1-6.8-1-7.5,3.5c-0.9,5.2-2.8,6.4-8.3,5.6c-7.1-1.1-14.5,0.1-21.7-0.4c-9.7-0.7-19.5-0.3-29.1-1.8c2-1.1,4-2.3,6-3.4
		c2-0.8,4-1.6,6.1-2.3c22.9-5.7,46-6.2,69.3-3.3C253.4,57.9,258.6,59.4,263.8,60.4z"/>
	<path class="st77" d="M170.8,84.2c-2.5-1.5-5.2-0.7-7.8-1c-1.9-0.2-4.5,0.8-5.3-2.2c0-1.1,0.2-2.1,1.1-2.9c0.2,0.5,0.2,1.7,0.9,1.1
		c5-4.2,8.5-4.2,13.1-0.1c-0.3,0-0.6,0.1-1,0.2C170.5,80.7,172.1,82.8,170.8,84.2z"/>
	<path class="st67" d="M196.8,193.1c6.2,0,12.5-0.1,18.7-0.1c3.4-0.3,5,0.6,4.3,4.6c-2.5,13.1,0.3,26.4-2,39.6
		c-0.5,2.7,0.2,4.8,3.7,5c-7.9,0-15.8,0-23.8,0c0-7.8,0.1-15.6,0.1-23.4c0-1.6,0.7-3.4-0.9-4.7C197,207.1,196.9,200.1,196.8,193.1z"
		/>
	<path class="st17" d="M244.2,230.4c1.2,3.1,0.4,6.3,0.5,9.5C243.3,236.8,244,233.6,244.2,230.4z"/>
	<path class="st78" d="M207.8,86.3c-6.7-1-13.5-1-20.1-3c1.2-3,3.9-3.4,6.6-3.4c7.3,0,14.6-0.4,21.8,0.3c3.2,0.3,6.2,0.2,8.9-2
		c1.9-1.6,4.4-1.4,6.7-1.3c8.1,0.4,16.2,0.3,24.2,1.1c3.2,0.3,6.7,0.4,9,3.4c-9.7,3.8-20,4.1-30.2,4.7
		C225.8,86.7,216.8,86.3,207.8,86.3z"/>
	<path class="st77" d="M264.9,81.4c-6.5-1.8-13-3.2-19.9-2.2c-3.4,0.5-6.8-1.2-10.3-1c-4.2,0.3-8.6-0.7-12,3.1
		c-1.1,1.1-2.7,0.8-4.2,0.6c-7.2-0.9-14.5-0.5-21.8-0.6c-3.2-0.1-6.2-0.1-8.9,2.1c-4.2,0-8.1-1.4-11.9-3c0.8-3.4,3.6-2.9,6-3
		c12.5-0.7,24.9,1.3,37.3,1c1.5,0,3.6,0.2,4.3-0.6c4.7-5.4,11-3.8,16.4-3.2c9.6,1.1,19.1,1.1,28.6,0.7c4-0.1,5,0.9,2.4,4.2
		C268.8,80.1,266.9,80.7,264.9,81.4z"/>
	<path class="st79" d="M258.6,121.2c1.9,4.5-0.3,10.2-4.7,11.8c-5.6,2.1-11.7-0.8-13.4-6.2c-1.4-4.5,1.7-10.5,6.3-11.3
		c3.6-0.6,7.4-0.9,10,2.6c-0.8,1.3-1.9,2.4-3,3.4c-1.2,0.2-2.2-0.7-3.4-0.8c-2.2-0.2-4,0.6-4.7,2.8c-0.6,1.9,0.6,3.2,2.3,3.9
		c2.3,0.9,4.3,0.5,5.3-2c0.3-0.8,0.4-1.6,0.7-2.4C255.1,121.3,256.8,121.1,258.6,121.2z"/>
	<path class="st80" d="M246.5,93.5c5.7-0.1,11.7,5.1,12.1,10.6c0.1,1.4,0.2,2.9-1.5,3.2c-1.7,0.3-2.1-0.9-2.4-2.4
		c-0.8-4.5-3.7-7.2-8.1-7.3c-4.7-0.1-7.7,2.7-8.7,7.4c-0.3,1.5-0.7,2.8-2.4,2.3c-1.6-0.4-1.6-1.9-1.4-3.3
		C234.8,98.6,240.7,93.6,246.5,93.5z"/>
	<path class="st81" d="M213.8,145.3c-3.1-0.3-6.4,0.4-8.6-2.6c-0.8-1.1-2.3-2.5-0.7-3.8c1.4-1.2,2.2,0.5,3,1.5
		c0.3,0.4,0.8,0.6,1.1,0.9c7,1.9,14,0.5,21.1,0.6c0.8,0,1.7-0.9,2.3-1.6c0.9-1,1.7-2.5,3.1-1.1c1.2,1.2-0.1,2.5-0.8,3.5
		c-1.5,2-3.7,2.5-6.2,2.5C223.4,145.2,218.6,145.3,213.8,145.3z"/>
	<path class="st82" d="M302.5,121.8c-0.8,3.9-2.7,7.1-7,8.6c-0.9,0.3-2,1-2.6-0.3c-0.4-1-0.1-1.8,0.8-2.5c7.2-5.7,7.2-6.3,0.2-12.7
		c-0.7-0.6-1.3-1.3-0.8-2.1c0.5-0.8,1.4-0.7,2.3-0.6C298.9,112.7,302.6,117.6,302.5,121.8z"/>
	<path class="st83" d="M258.6,121.2c-1.2,0.7-2.1,2.3-3.8,1.2c-1,0-1.4-0.4-1.2-1.4c0-2.2,1.2-3,3.2-3
		C257.4,119.1,258,120.1,258.6,121.2z"/>
	<path class="st84" d="M163.8,73.3c1.4-3,3.9-3.2,6.7-3c12.7,1.2,25.3,2.3,38,1.9c5.4-0.2,10.8,2.5,16.2,0.1c-0.3,3.1-2.5,3-4.7,3
		c-16.5,0-32.9-0.6-49.3-1.9C168.5,73.1,166.1,73.3,163.8,73.3z"/>
	<path class="st85" d="M287.8,168.2c-1.8-5.6-1.5-11.2-0.2-16.9C287.7,157,287.8,162.6,287.8,168.2z"/>
	<path class="st86" d="M183.9,193.2c1.2,0,2.4,0,3.6,0c0.8,2.2,4,1.7,4.8,4.8C188.8,197.1,185.9,196,183.9,193.2z"/>
	<path class="st87" d="M202.9,179.9c0-0.3,0-0.5,0.1-0.8c3.1-2.4,6.7-1.3,10-1.4c5.9-0.2,6.2-0.3,6.2-6.1c0-2.5-0.1-4.9,0.1-7.4
		c0.1-1.8,0.3-3.7,2.2-4.7c8.6-1.2,17.3-0.7,25.9-0.3c0.6,0.2,1.1,0.5,1.6,1c-4.7,8.4-9.4,16.7-19.4,19.9
		C220.7,181,211.8,181.3,202.9,179.9z"/>
	<path class="st88" d="M197.9,159.3c0-0.4-0.1-0.8-0.1-1.1c4.6-1,9.2-0.4,13.9-0.4c11.1-0.1,22.2-0.1,33.4,0c1.6,0,3.3-0.7,4.7,0.7
		c-0.3,0.6-0.5,1.1-0.8,1.7l-0.2,0.1l-0.3-0.1c-8.9-1.2-17.9-0.2-26.9-0.5C213.7,161.1,205.8,162,197.9,159.3z"/>
	<path class="st89" d="M249.8,158.5c-17.3-0.1-34.6-0.2-52-0.2c4.4-2.1,9.1-0.6,13.6-1c3.1-0.2,6.3-0.1,9.4-0.1c8,0,16,0,23.9,0.1
		C246.5,157.3,248.5,156.5,249.8,158.5z"/>
	<path class="st90" d="M202.9,179.9c8.9,0,17.8,0.1,26.7,0.1c-2.7,2.4-5.9,0.5-8.8,1.1c-4.5,0-9,0-13.5,0
		C205.8,181.1,203.9,181.8,202.9,179.9z"/>
	<path class="st91" d="M170.8,84.2c0.4-1.6-0.8-3.6,1.1-4.9c0,9.4-0.2,18.9,0.1,28.3c0.1,3.5-0.7,4.9-4.4,3.6c-3-1.1-6-1.1-9.2-0.4
		c-3.3,0.7-5.1-1-3.4-4.7c0.6-6.1,5.2-4.9,9-4.9c6.9,0,6.9,0,6.8-7C170.8,90.9,170.8,87.5,170.8,84.2z"/>
	<path class="st92" d="M203.7,120c2.3,4.4,1.5,7.9-2.7,10.7c-4,2.6-9.1,2.2-12.3-1c-3.1-3.1-4-6.5-1.4-10.3c2.8-4.3,7.3-5.3,12.7-3
		c0.2,1.7-0.9,2.6-2.3,3.3c-0.8,0.2-1.6,0.2-2.4,0.5c-1.8,0.6-3.5,1.3-3.3,3.6c0.2,1.7,1.4,2.6,2.9,2.9c2,0.4,3.6-0.2,4.5-2.2
		c0.3-0.8,0.5-1.6,0.9-2.3C201.1,120.9,202,119.8,203.7,120z"/>
	<path class="st93" d="M191.9,100.3c-3.9,0.2-6.7,2.7-7.8,7c-0.4,1.4-0.3,3.4-2.5,2.8c-1.8-0.5-1.6-2.2-1.3-3.8
		c1.1-5.5,6.3-9.9,12.1-10c5.5-0.1,10.9,4,12.1,9.4c0.4,1.6,1.1,3.6-1,4.3c-2.5,0.8-2.3-1.4-2.8-3
		C199.7,102.9,196.6,100.5,191.9,100.3z"/>
	<path class="st94" d="M137.7,118.4c-0.1-3.5,2.5-6.1,6.1-7.9c0.9-0.5,2.4-0.9,2.9,0.7c0.4,1.2-0.5,1.6-1.4,2.2
		c-6.4,4.3-6.3,7.7,0.3,12.1c0.9,0.6,1.7,1.1,1.4,2.3c-0.5,1.9-1.9,0.8-2.8,0.6C139.8,126.8,137.7,123.8,137.7,118.4z"/>
	<path class="st95" d="M197.6,119.1c0.8-0.9,1.6-1.8,2.4-2.7c1.6,0.9,3.7,1.2,3.7,3.7c-0.9,0.7-1.9,1.5-2.8,2.2
		C198.4,122.6,196.9,122,197.6,119.1z"/>
	<path class="st96" d="M197.9,159.3c7.9,0,15.9,0,23.8,0.1c0.4,0.2,0.5,0.3,0.4,0.5s-0.2,0.3-0.4,0.3c-1.9,4.8-0.8,9.7-0.9,14.6
		c0,3.5-1.2,4.6-4.6,4.4c-4.4-0.2-8.9,0-13.4,0C201.3,172.5,199.6,165.9,197.9,159.3z"/>
	<path class="st97" d="M253.6,121c0.4,0.5,0.8,0.9,1.2,1.4c0.7,2.7,0.2,5.1-2.3,6.4c-2.8,1.5-5.5,1-7.5-1.7
		c-1.7-2.4-1.3-4.8,0.8-6.7C248.5,118.2,251.2,118.1,253.6,121z"/>
	<path class="st98" d="M221.8,160.2c0-0.3,0-0.5,0-0.8c8.3-0.1,16.6-0.1,24.9-0.2c0.7,0,1.7-0.3,1.8,1
		C239.6,160.2,230.7,160.2,221.8,160.2z"/>
	<path class="st99" d="M197.6,119.1c0.2,2,1.6,2.7,3.3,3.2c0.3,2.3-0.3,4.3-2.4,5.5c-2.2,1.2-4.4,1.1-6.4-0.5
		c-1.7-1.4-2.4-3.2-1.4-5.3C192.1,119,194.5,118,197.6,119.1z"/>
</g>
</svg>
