<?xml version="1.0" encoding="utf-8"?>
<!-- Generator: Adobe Illustrator 23.0.3, SVG Export Plug-In . SVG Version: 6.00 Build 0)  -->
<svg version="1.1"
	 id="Layer_1" xmlns:cc="http://creativecommons.org/ns#" xmlns:dc="http://purl.org/dc/elements/1.1/" xmlns:rdf="http://www.w3.org/1999/02/22-rdf-syntax-ns#"
	 xmlns="http://www.w3.org/2000/svg" xmlns:xlink="http://www.w3.org/1999/xlink" x="0px" y="0px" viewBox="0 0 100 125"
	 style="enable-background:new 0 0 100 125;" xml:space="preserve">
<style type="text/css">
	.st0{fill:#1EC479;}
</style>
<g>
	<g transform="translate(0,-952.36218)">
		<path class="st0" d="M56.69,983.28c0.18,0.95,0.83,4.5,1.13,9.34c0.34,5.53,0.06,12.03-2.12,15.73c-2.17,3.7-6.48,5.07-10.33,5.49
			c-1.51,0.17-2.89,0.19-4,0.15c-0.34-0.01-0.62-0.34-2.45,1.6s-2.27,5.21-2.57,6.25c-0.06,0.22-0.11,0.35-0.16,0.34
			c-0.47-0.05-0.81-0.09-0.97-0.12c0.12-0.22,0.52-5.09,2.34-7.46c1.83-2.36,1.64-1.91,1.75-2.11c3.33-5.8,7.62-11.56,11.63-16.1
			c0.2-0.21,0.23-0.55,0.07-0.79c-0.15-0.24-0.48-0.35-0.75-0.26c-0.12,0.04-0.22,0.11-0.3,0.21c-4.25,4.81-8.26,10.33-11.69,16.5
			c-0.64-1.01-2.12-2.06-2.9-4.09c-1.34-3.47-2.08-7.8,0.1-11.51c2.18-3.71,7.66-7.16,12.6-9.59
			C52.4,984.76,55.78,983.59,56.69,983.28L56.69,983.28z"/>
	</g>
	<path class="st0" d="M84.32,35.71L73.06,27.6V12.52c0-1.94-1.68-3.51-3.74-3.51h-6.17c-2.06,0-3.74,1.57-3.74,3.51v5.25L48.28,9.75
		c-0.86-0.62-2.08-0.62-2.95,0L9.29,35.71c-0.89,0.64-1.26,1.78-0.93,2.82c0.34,1.04,1.3,1.75,2.4,1.75h3.55v39.85
		c0,1.39,1.13,2.52,2.52,2.52h59.94c1.39,0,2.52-1.13,2.52-2.52V40.28h3.56c1.1,0,2.06-0.7,2.4-1.75
		C85.59,37.49,85.21,36.35,84.32,35.71z M76.49,37.48v42.37H17.12V37.48h-5.49L46.8,12.14l15.41,11.1V12.52
		c0-0.38,0.43-0.71,0.94-0.71h6.17c0.51,0,0.94,0.33,0.94,0.71v16.52l11.72,8.44C81.98,37.48,76.49,37.48,76.49,37.48z"/>
</g>
</svg>
