<?xml version="1.0" encoding="utf-8"?>
<!-- Generator: Adobe Illustrator 23.1.1, SVG Export Plug-In . SVG Version: 6.00 Build 0)  -->
<svg version="1.1" id="Layer_1" xmlns="http://www.w3.org/2000/svg" xmlns:xlink="http://www.w3.org/1999/xlink" x="0px" y="0px"
	 viewBox="0 0 1125 2436" style="enable-background:new 0 0 1125 2436;" xml:space="preserve">
<style type="text/css">
	.st0{fill:#703D78;}
	.st1{fill:none;stroke:url(#SVGID_1_);stroke-width:11;stroke-miterlimit:10;}
	.st2{fill:none;stroke:url(#SVGID_2_);stroke-width:11;stroke-miterlimit:10;}
	.st3{fill:none;stroke:url(#SVGID_3_);stroke-width:11;stroke-miterlimit:10;}
	.st4{fill:url(#SVGID_4_);stroke:#242959;stroke-width:12;stroke-miterlimit:10;}
	.st5{fill:none;}
	.st6{fill:#FFFFFF;}
	.st7{font-family:'ArialRoundedMTBold';}
	.st8{font-size:100px;}
	.st9{fill:none;stroke:#020202;stroke-miterlimit:10;}
	.st10{font-size:72px;}
	.st11{fill:none;stroke:#000000;stroke-miterlimit:10;}
	.st12{fill:none;stroke:#000000;}
	.st13{fill:#FCFCFC;}
</style>
<rect x="150.5" y="557.5" class="st0" width="824" height="861.5"/>
<linearGradient id="SVGID_1_" gradientUnits="userSpaceOnUse" x1="140.5" y1="1738" x2="984.5" y2="1738" gradientTransform="matrix(1 0 0 -1 0 2436)">
	<stop  offset="0" style="stop-color:#01C2C7"/>
	<stop  offset="1" style="stop-color:#1B1464"/>
</linearGradient>
<rect x="146" y="558" class="st1" width="833" height="280"/>
<linearGradient id="SVGID_2_" gradientUnits="userSpaceOnUse" x1="140.5" y1="1450.5" x2="984.5" y2="1450.5" gradientTransform="matrix(1 0 0 -1 0 2436)">
	<stop  offset="0" style="stop-color:#01C2C7"/>
	<stop  offset="1" style="stop-color:#1B1464"/>
</linearGradient>
<rect x="146" y="845.5" class="st2" width="833" height="280"/>
<linearGradient id="SVGID_3_" gradientUnits="userSpaceOnUse" x1="141" y1="1162.5" x2="985" y2="1162.5" gradientTransform="matrix(1 0 0 -1 0 2436)">
	<stop  offset="0" style="stop-color:#01C2C7"/>
	<stop  offset="1" style="stop-color:#1B1464"/>
</linearGradient>
<rect x="146.5" y="1133.5" class="st3" width="833" height="280"/>
<linearGradient id="SVGID_4_" gradientUnits="userSpaceOnUse" x1="44.5" y1="2036" x2="1080.5" y2="2036" gradientTransform="matrix(1 0 0 -1 0 2436)">
	<stop  offset="0" style="stop-color:#01C2C7"/>
	<stop  offset="1" style="stop-color:#703D78"/>
</linearGradient>
<rect x="44.5" y="274" class="st4" width="1036" height="252"/>
<rect x="102.5" y="290" class="st5" width="920" height="236"/>
<text transform="matrix(1 0 0 1 187.9707 362.7568)" class="st6 st7 st8">Welcome to the </text>
<text transform="matrix(1 0 0 1 187.9707 362.7568)" class="st9 st7 st8">Welcome to the </text>
<text transform="matrix(1 0 0 1 125.9207 482.7568)" class="st6 st7 st8">virtual classroom!</text>
<text transform="matrix(1 0 0 1 125.9207 482.7568)" class="st9 st7 st8">virtual classroom!</text>
<polygon class="st5" points="1337,410 1333,410 1333,410 "/>
<rect x="200.5" y="614" class="st5" width="724" height="180"/>
<text transform="matrix(1 0 0 1 329.5723 666.416)" class="st6 st7 st10">Checkout the</text>
<text transform="matrix(1 0 0 1 329.5723 666.416)" class="st11 st7 st10">Checkout the</text>
<text transform="matrix(1 0 0 1 363.3023 752.816)" class="st6 st7 st10">Classroom.</text>
<text transform="matrix(1 0 0 1 363.3023 752.816)" class="st11 st7 st10">Classroom.</text>
<text transform="matrix(1 0 0 1 329.5723 1250.6531)" class="st6 st7 st10">Checkout the</text>
<text transform="matrix(1 0 0 1 329.5723 1250.6531)" class="st12 st7 st10">Checkout the</text>
<text transform="matrix(1 0 0 1 412.8023 1337.0531)" class="st6 st7 st10">Hallway.</text>
<text transform="matrix(1 0 0 1 412.8023 1337.0531)" class="st12 st7 st10">Hallway.</text>
<text transform="matrix(1 0 0 1 329.5723 966)" class="st13 st7 st10">Checkout the</text>
<text transform="matrix(1 0 0 1 329.5723 966)" class="st12 st7 st10">Checkout the</text>
<text transform="matrix(1 0 0 1 378.3523 1052.4)" class="st13 st7 st10">Bathroom</text>
<text transform="matrix(1 0 0 1 378.3523 1052.4)" class="st12 st7 st10">Bathroom</text>
<text transform="matrix(1 0 0 1 724.1123 1052.4)" class="st7 st10">.</text>
</svg>
